<?xml version="1.0" encoding="UTF-8"?>
<svg id="b" data-name="Export" xmlns="http://www.w3.org/2000/svg" viewBox="0 0 720 720">
  <circle cx="360" cy="360" r="359.90993" fill="#fff"/>
  <g id="c" data-name="Text Circle">
    <g id="d" data-name="Stars">
      <polygon points="93.6795 438.55338 71.03901 432.49038 58.27646 452.1492 57.04642 428.74324 34.40593 422.68025 56.28621 414.27757 55.05617 390.87162 69.80897 409.08443 91.68925 400.68175 78.9267 420.34057 93.6795 438.55338" fill="#007441"/>
      <polygon points="626.15477 438.55338 648.79526 432.49038 661.55781 452.1492 662.78785 428.74324 685.42834 422.68025 663.54806 414.27757 664.7781 390.87162 650.0253 409.08443 628.14502 400.68175 640.90757 420.34057 626.15477 438.55338" fill="#007441"/>
    </g>
    <g>
      <path d="M60,360c0,165.68542,134.31458,300,300,300s300-134.31458,300-300" fill="none"/>
      <path d="M94.47866,501.43555c5.35547-3.44336,11.25586-4.37891,17.7002-2.80664,6.43359,1.55566,11.46777,5.15918,15.10156,10.81055,3.58984,5.58398,4.73047,11.61914,3.42188,18.10547-1.29883,6.50391-4.66797,11.50293-10.10547,15-5.4707,3.5166-11.40625,4.4873-17.80664,2.91113-6.42871-1.58301-11.48047-5.23438-15.1582-10.9541-3.25391-5.05957-4.47461-10.69629-3.66309-16.91016.91113-6.85156,4.41504-12.2373,10.50977-16.15625ZM98.2394,507.44824c-4.20508,2.7041-6.72754,6.38184-7.56641,11.03613-.85059,4.63574-.05762,8.84961,2.37988,12.63965,2.64355,4.1123,6.25391,6.69336,10.83105,7.74512,4.60938,1.03027,8.91895.25684,12.92773-2.32129,4.05664-2.6084,6.56055-6.19141,7.50879-10.74707.97559-4.5498.14746-8.87207-2.48535-12.9668-2.62305-4.0791-6.2168-6.63477-10.7832-7.66895-4.5332-1.05566-8.80371-.29492-12.8125,2.2832Z" fill="#1b1464"/>
      <path d="M154.70424,556.38574l-10.67188-12.2334-8.19141,7.14551,10.29688,11.80176-4.83496,4.21777-10.2959-11.80078-16.22559,14.15625-4.62207-5.29785,34.08496-29.73828,15.29492,17.53125-4.83496,4.21777Z" fill="#1b1464"/>
      <path d="M177.60659,570.46094l-7.86719,31.6123,29.26172-18.87207-9.15332,33.39453,28.14746-16.9668,6.18945,4.46973-45.04492,26.80859,9.05273-32.99707-28.90918,18.69238,12.13379-50.61133,6.18945,4.46973Z" fill="#1b1464"/>
      <path d="M247.63881,621.05957l-16.77148-8.22266-4.78516,9.75879,16.28418,7.98438-2.8252,5.76074-16.28418-7.98438-6.6543,13.57324,16.77148,8.22363-2.8252,5.76074-23.08496-11.31836,19.91504-40.61523,23.08398,11.31836-2.82422,5.76074Z" fill="#1b1464"/>
      <path d="M242.26186,660.72168l14.82129-42.7373,6.61426,2.29395c2.94629,1.02148,5.21582,2.05762,6.81152,3.10645,1.61426,1.05566,2.84766,2.32031,3.69922,3.79492.85742,1.5166,1.36523,3.21289,1.52539,5.08691.17188,1.89941-.03418,3.68848-.61621,5.36816-1.0625,3.06348-3.16895,5.2373-6.31836,6.52246,2.06934,1.58496,3.44238,3.58105,4.12012,5.98633.70312,2.39453.6123,4.86426-.27051,7.41016-1.15918,3.34082-3.35449,5.74219-6.58691,7.20508-1.95703.91309-3.94336,1.33008-5.95898,1.25098-2.18164-.15723-4.77344-.75586-7.77734-1.79785l-10.06348-3.49023ZM251.00698,656.96387l4.10547,1.42383c3.00293,1.04102,5.40625,1.23438,7.20898.57715,1.91211-.72168,3.19727-2.0332,3.85547-3.93359.64062-1.8457.46484-3.64258-.52539-5.3916-.95898-1.71777-3.22461-3.19629-6.79688-4.43555l-3.36523-1.16699-4.48242,12.92676ZM257.36147,638.63965l2.08105.72168c2.4707.85742,4.46484.95508,5.9834.29199,1.51758-.66211,2.63574-2.02637,3.35254-4.09277.69727-2.01172.63672-3.74316-.17969-5.19434s-2.34668-2.56641-4.58887-3.34375l-2.33789-.81055-4.31055,12.42773Z" fill="#1b1464"/>
      <path d="M301.31362,677.73633l5.83203-44.85645,9.69531,1.26074c4.64844.60352,8.26074,1.52734,10.83789,2.76758,2.7793,1.24805,5.20996,3.07031,7.29199,5.46875,4.21875,4.8418,5.88184,10.70117,4.9873,17.57715-.89648,6.89453-4.10547,12.15039-9.62695,15.76465-2.77148,1.80664-5.57617,2.94824-8.41797,3.42578-2.66211.50098-6.33691.44629-11.02539-.16309l-9.57422-1.24512ZM309.11245,672.28027l3.14258.40918c3.13086.40723,5.77539.42578,7.93359.05664,2.16309-.4082,4.17871-1.23926,6.04492-2.49316,3.82715-2.59473,6.05859-6.33301,6.69238-11.21387.63965-4.91895-.53711-9.12891-3.53027-12.63086-2.69727-3.12793-7.01855-5.07812-12.96289-5.85059l-3.14258-.40918-4.17773,32.13184Z" fill="#1b1464"/>
      <path d="M374.92104,643.57422l-18.67676.30273.17676,10.86719,18.13281-.29395.10352,6.41504-18.13281.29492.24512,15.11426,18.67676-.30273.10352,6.41602-25.70703.41602-.73242-45.22852,25.70605-.41602.10449,6.41504Z" fill="#1b1464"/>
      <path d="M384.38003,636.63086l16.93555,29.3584,8.78613-32.80566,7.62695-1.02246-14.2666,50.97949-26.70801-45.4873,7.62598-1.02246Z" fill="#1b1464"/>
      <path d="M447.53921,630.40234l-18.03223,4.87012,2.83398,10.49316,17.50781-4.72852,1.67383,6.19434-17.50879,4.72852,3.94238,14.59375,18.03125-4.87012,1.67383,6.19434-24.82031,6.70312-11.79492-43.66895,24.82031-6.7041,1.67285,6.19434Z" fill="#1b1464"/>
      <path d="M459.41323,619.04492l14.05957,36.18262,12.76953-4.96191,2.32324,5.98047-19.32227,7.50879-16.38379-42.16406,6.55371-2.5459Z" fill="#1b1464"/>
      <path d="M483.42104,634.37891c-3.07812-5.57422-3.61719-11.52344-1.61914-17.84863,1.98242-6.31543,5.91406-11.09766,11.79492-14.3457,5.81152-3.20996,11.90918-3.94531,18.29297-2.20605,6.40234,1.73047,11.16602,5.4248,14.29297,11.08301,3.14453,5.69336,3.71582,11.68066,1.71582,17.96191-2.00879,6.30859-5.98926,11.10645-11.94043,14.39355-5.26562,2.9082-10.97168,3.75-17.11719,2.52637-6.77539-1.36719-11.91602-5.22168-15.41992-11.56445ZM489.67104,631.02637c2.41797,4.37695,5.91992,7.13965,10.50781,8.28809,4.56836,1.15723,8.8252.64648,12.76953-1.53223,4.2793-2.36328,7.0957-5.79297,8.45117-10.29004,1.33496-4.53027.85156-8.88184-1.45312-13.05371-2.33203-4.22168-5.74023-6.95898-10.22266-8.20898-4.47461-1.27734-8.84277-.73926-13.10352,1.61426-4.24414,2.34473-7.03516,5.75977-8.37109,10.24707-1.35547,4.45215-.88086,8.76465,1.42188,12.93555Z" fill="#1b1464"/>
      <path d="M541.71987,604.07422l11.17773,14.57715-5.58008,4.27832-27.52344-35.89844,6.32227-4.84668c3.09766-2.375,5.59668-3.95898,7.49805-4.75195,1.91797-.80566,3.92773-1.0918,6.0332-.85938,3.66797.38672,6.67871,2.11426,9.03125,5.18359,2.51953,3.28613,3.38281,6.75977,2.58984,10.41895-.79395,3.66016-3.11523,6.96582-6.96191,9.91504l-2.58691,1.9834ZM537.87026,599.05176l2.08301-1.59766c5.125-3.92871,6.21973-7.80762,3.28418-11.63574-2.83984-3.7041-6.90234-3.53125-12.18652.52051l-1.84473,1.41406,8.66406,11.29883Z" fill="#1b1464"/>
      <path d="M567.36049,554.25195l-13.41699,12.99609,7.5625,7.80664,13.02637-12.61719,4.46387,4.6084-13.02637,12.61719,10.51758,10.8584,13.41699-12.99512,4.46387,4.6084-18.4668,17.8877-31.47266-32.49121,18.4668-17.8877,4.46484,4.6084Z" fill="#1b1464"/>
      <path d="M597.7687,548.40527l24.05859.90039-5.40625,6.68848-22.76465-1.29004-.79688.98535,14.39941,11.63965-4.41992,5.46777-35.17871-28.43555,5.17871-6.40625c3.86914-4.78809,7.53809-7.53906,11.00488-8.25488,3.84082-.77539,7.35645.12598,10.5459,2.7041,2.49219,2.01367,4.03906,4.48047,4.64258,7.39941.60352,2.91992.18164,5.78711-1.26367,8.60156ZM588.23452,551.95117l1.40332-1.73633c4.18555-5.17871,4.35742-9.32129.51465-12.42773-3.60059-2.91016-7.43652-1.8457-11.50781,3.19141l-1.5752,1.94824,11.16504,9.02441Z" fill="#1b1464"/>
      <path d="M608.85464,497.91797l-.22266,6.57617c-2.08984-.04297-3.62109.20117-4.5957.73242-1.06152.52539-2.01172,1.46191-2.85059,2.81152-1.03027,1.6582-1.42871,3.31738-1.19531,4.97754.21582,1.65039,1.00488,2.89844,2.36426,3.74316,1.875,1.16504,4.27734.66797,7.20508-1.49219l4.02051-2.97266c3.25684-2.42871,6.25488-3.82227,8.99512-4.18066,2.74023-.35742,5.42969.2832,8.06738,1.92188,3.53418,2.19629,5.7002,5.22363,6.49805,9.08301.80371,3.88672.08105,7.64062-2.16992,11.26367-2.13379,3.43359-4.88379,5.65723-8.24902,6.66895-3.34375.97754-6.97656.62695-10.90039-1.05371l2.46484-6.85254c2.42578,1.12891,4.2832,1.61914,5.57031,1.47168,2.42383-.19922,4.36719-1.47852,5.83203-3.83594,1.1582-1.8623,1.51367-3.78516,1.06641-5.76855-.44531-1.98242-1.59863-3.55078-3.45703-4.70605-.74609-.46387-1.49707-.78125-2.25195-.95508-.75488-.17285-1.53418-.19531-2.33789-.06738-.80371.12891-1.65625.41016-2.55859.84375-.90234.43457-1.86914,1.01855-2.89941,1.75098l-3.91602,2.86035c-5.58887,4.03613-10.52246,4.72363-14.80371,2.06445-2.88574-1.79395-4.59375-4.42969-5.12305-7.90918-.54492-3.48828.2334-6.9248,2.33594-10.30762,2.83398-4.5625,7.20508-6.78516,13.11133-6.66797Z" fill="#1b1464"/>
    </g>
    <g>
      <path d="M660,360c0-165.68542-134.31458-300-300-300S60,194.31458,60,360" fill="none"/>
      <path d="M38.46206,333.22021l45.11816,3.23584-.48828,6.80859-45.11816-3.23584.48828-6.80859Z" fill="#1b1464"/>
      <path d="M83.7101,328.09424l-47.48242-8.90479,40.00098-26.06152-30.89746-5.79443,1.25879-6.70947,47.16602,8.8457-39.91504,26.07764,31.12695,5.83789-1.25781,6.70898Z" fill="#1b1464"/>
      <path d="M60.77065,257.49023l36.85938,12.17627-2.1416,6.48193-36.85938-12.17627-3.2627,9.87549-6.0918-2.0127,8.65625-26.20459,6.09277,2.01221-3.25293,9.84766Z" fill="#1b1464"/>
      <path d="M77.25307,217.66504l-7.46875,16.5249,9.9043,4.47705,7.25195-16.04443,5.8457,2.64258-7.25195,16.04443,13.77539,6.22656,7.46973-16.5249,5.84668,2.64258-10.28125,22.74512-41.21875-18.63135,10.28125-22.74512,5.8457,2.64258Z" fill="#1b1464"/>
      <path d="M107.00307,204.97656l23.7373-2.06055-4.30566,7.15479-22.52539,1.52441-.63477,1.0542,15.86523,9.5459-3.51953,5.84912-38.75879-23.32129,4.12402-6.85303c3.08105-5.12109,6.26855-8.24023,9.5625-9.3584,3.65234-1.22168,7.23633-.7749,10.75,1.33984,2.74609,1.65137,4.63184,3.85791,5.66016,6.61914,1.02734,2.76123,1.04297,5.59668.04492,8.50586ZM98.17885,209.58301l1.11719-1.85742c3.33398-5.53906,2.88281-9.58301-1.35156-12.13037-3.96582-2.38672-7.57031-.88525-10.8125,4.50342l-1.25391,2.0835,12.30078,7.40088Z" fill="#1b1464"/>
      <path d="M132.6144,199.85889l-37.38672-30.59668,47.60059-3.67139-24.32715-19.90918,4.32324-5.28271,37.1377,30.39258-47.5332,3.72705,24.50879,20.05762-4.32324,5.28271Z" fill="#1b1464"/>
      <path d="M175.88881,137.83057l-14.47949,12.85986,3.5293,11.56006-5.49805,4.8833-15.19141-50.80908,48.07031,21.60742-5.58594,4.96094-10.84473-5.0625ZM169.54799,134.88184l-15.23047-7.04492,4.95703,16.16895,10.27344-9.12402Z" fill="#1b1464"/>
      <path d="M181.13198,99.1958l22.32715,31.75439-5.58398,3.92627-22.32715-31.75439-8.50781,5.98193-3.69043-5.24854,22.5752-15.87354,3.69141,5.24854-8.48438,5.96533Z" fill="#1b1464"/>
      <path d="M198.61635,80.57031l23.06934,38.91016-5.87207,3.48096-23.06836-38.91016,5.87109-3.48096Z" fill="#1b1464"/>
      <path d="M217.19741,94.80762c-2.57324-5.82422-2.64746-11.77002-.22363-17.83643,2.4043-6.05908,6.5918-10.40625,12.55859-13.04199,5.89648-2.604,11.88281-2.729,17.96289-.375,6.0957,2.34619,10.4502,6.47607,13.0625,12.38965,2.62695,5.94922,2.73047,11.93604.30957,17.9585-2.43164,6.04932-6.66699,10.40723-12.70508,13.07422-5.34277,2.35986-10.95605,2.62939-16.84082.80908-6.48828-2.02344-11.19629-6.34961-14.12402-12.97803ZM223.53042,92.10596c2.02051,4.57422,5.21777,7.65625,9.59375,9.24658,4.35645,1.59863,8.53516,1.51416,12.53809-.25391,4.34082-1.91748,7.34082-5.03564,8.99902-9.35498,1.64258-4.35498,1.5-8.7124-.42578-13.07178-1.94824-4.4126-5.05664-7.45996-9.32227-9.1416-4.25586-1.70752-8.54492-1.60645-12.86914.30322-4.30469,1.90186-7.27832,5.00879-8.91797,9.32031-1.65625,4.27588-1.52148,8.59326.4043,12.95215Z" fill="#1b1464"/>
      <path d="M274.24135,95.36621l-11.52637-46.91553,40.27051,25.64453-7.50098-30.52783,6.62891-1.62891,11.4502,46.60254-40.24902-25.55908,7.55566,30.75537-6.62891,1.62891Z" fill="#1b1464"/>
      <path d="M346.10952,71.79492l-19.30176,1.56445-4.13477,11.35742-7.33008.59424,18.42578-49.72705,25.40527,46.17432-7.44629.60352-5.61816-10.56689ZM342.81753,65.625l-7.92969-14.78857-5.76562,15.89844,13.69531-1.10986Z" fill="#1b1464"/>
      <path d="M370.65932,37.55469l-1.38672,38.79346,13.29297.4751-.22949,6.41162-20.11426-.71875,1.61523-45.20557,6.82227.24414Z" fill="#1b1464"/>
      <path d="M431.51284,80.39209l-18.91797-4.1416-7.27148,9.65479-7.18359-1.57275,32.14648-42.17676,10.81055,51.58154-7.29785-1.59766-2.28613-11.74756ZM430.16518,73.5293l-3.26367-16.45947-10.1582,13.521,13.42188,2.93848Z" fill="#1b1464"/>
      <path d="M480.67788,67.68213l-6.3252,1.19092c-.35938-2.04248-.88477-3.48096-1.5791-4.31543-.7041-.92139-1.78125-1.64551-3.23145-2.17285-1.78027-.64795-3.44141-.68018-4.98242-.09814-1.53613.56396-2.57715,1.59863-3.125,3.10352-.75391,2.07422.17969,4.30518,2.80273,6.69336l3.60938,3.27637c2.94336,2.65039,4.84766,5.271,5.71289,7.86133.86719,2.59082.76855,5.34521-.29297,8.26367-1.42188,3.90967-3.90039,6.66602-7.43457,8.26904-3.55957,1.61523-7.28516,1.71484-11.17676.29932-3.68848-1.3418-6.33789-3.54199-7.94824-6.60107-1.57324-3.04541-1.93262-6.65723-1.07715-10.83545l7.01758.93164c-.61426,2.60303-.72852,4.51562-.34082,5.73682.65332,2.31641,2.24707,3.93506,4.78027,4.85645,2,.72754,3.90527.66211,5.71484-.19727,1.80859-.85889,3.08691-2.31641,3.83398-4.37256.30078-.82568.46094-1.62451.48242-2.39648s-.10645-1.53516-.38281-2.29004c-.27539-.75537-.70703-1.5249-1.29492-2.31055-.58691-.78516-1.33008-1.60059-2.22656-2.44678l-3.48242-3.19922c-4.92383-4.57617-6.52344-9.23193-4.80176-13.96729,1.16211-3.19385,3.35449-5.42041,6.57617-6.67969,3.22852-1.27783,6.66113-1.25586,10.29492.06592,4.90137,1.78271,7.86035,5.56104,8.87695,11.33447Z" fill="#1b1464"/>
      <path d="M513.87905,83.74316l-6.4209.44189c-.11719-2.07031-.4707-3.56055-1.0625-4.4707-.5918-.99707-1.57617-1.84277-2.95508-2.53613-1.69238-.85156-3.33789-1.07861-4.9375-.68115-1.59082.38037-2.74609,1.28613-3.46582,2.71631-.99219,1.97168-.3252,4.29688,1.99902,6.97559l3.20117,3.67676c2.6123,2.97656,4.19727,5.80176,4.75391,8.47607s.13672,5.39844-1.25977,8.17236c-1.87012,3.71631-4.6543,6.16357-8.35156,7.3418-3.72461,1.18701-7.43555.84961-11.13477-1.01123-3.50586-1.76514-5.88086-4.26025-7.12109-7.48682-1.20508-3.2085-1.13965-6.83789.19922-10.88721l6.86035,1.74707c-.91504,2.51318-1.25195,4.39941-1.01074,5.65771.37891,2.37695,1.77148,4.1709,4.17969,5.38232,1.90039.95703,3.80078,1.11523,5.69727.47363,1.89746-.64111,3.33789-1.93896,4.32129-3.89355.39551-.78467.64746-1.55957.75879-2.32324.11133-.76416.07422-1.5376-.11133-2.31934-.18555-.78271-.52441-1.59766-1.01562-2.44629-.49219-.84863-1.13379-1.74561-1.92578-2.69092l-3.08301-3.58496c-4.35449-5.12109-5.39844-9.93213-3.13379-14.43311,1.52832-3.03613,3.96582-4.99072,7.31348-5.86426,3.35645-.89062,6.7627-.46729,10.21582,1.27148,4.6582,2.34424,7.15527,6.44287,7.48926,12.2959Z" fill="#1b1464"/>
      <path d="M513.42397,100.82715c3.66797-5.20459,8.72559-8.33008,15.1748-9.37646,6.43262-1.05811,12.31445.29199,17.64648,4.05029,5.26953,3.71338,8.45898,8.78125,9.57129,15.20459,1.12793,6.43457-.16992,12.29346-3.89355,17.57764-3.74805,5.31641-8.82617,8.4873-15.23633,9.51318-6.4375,1.03027-12.35352-.35596-17.75-4.15918-4.77344-3.36426-7.89453-8.0376-9.36523-14.02002-1.60645-6.604-.32227-12.86719,3.85254-18.79004ZM519.00112,104.86523c-2.88086,4.08691-3.87695,8.41504-2.98633,12.98438.87305,4.55811,3.09766,8.09717,6.67383,10.61816,3.87891,2.73389,8.09668,3.69922,12.65332,2.89648,4.5791-.83496,8.24121-3.19971,10.9873-7.09521,2.77832-3.94287,3.79102-8.17578,3.03516-12.69873-.72754-4.52783-3.02344-8.15283-6.88672-10.87549-3.84766-2.71191-8.04102-3.66064-12.58203-2.84619-4.51758.78223-8.14941,3.12158-10.89453,7.0166Z" fill="#1b1464"/>
      <path d="M596.22671,143.12939l-5.64355,5.79053c-.52148-5.11719-2.29297-9.14844-5.31445-12.09277-3.32812-3.24463-7.29883-4.78223-11.91016-4.6123-4.61133.14258-8.59375,1.93408-11.94727,5.37451-3.3125,3.39893-4.95996,7.38428-4.94238,11.95557.0166,4.57178,1.69043,8.47949,5.01953,11.72412,1.71973,1.67676,3.4541,2.82129,5.20215,3.43408.94434.375,2.00781.67529,3.19238.90186,1.18359.22656,2.50098.39258,3.95312.49805l-5.74512,5.89551c-4.33887-1.14551-8.04688-3.21826-11.12305-6.21729-4.62988-4.51221-7.00684-9.97852-7.13086-16.39941-.08301-6.43555,2.11816-11.95361,6.60352-16.55566,4.02148-4.12598,8.9707-6.47559,14.84668-7.04834,7.21484-.68652,13.4873,1.56689,18.81543,6.76074,2.91016,2.83496,4.95117,6.36572,6.12402,10.59082Z" fill="#1b1464"/>
      <path d="M609.19057,155.05322l-34.61914,29.11621-4.39258-5.22412,34.61719-29.11621,4.39453,5.22412Z" fill="#1b1464"/>
      <path d="M604.29409,206.3916l-10.87305-16.02539-11.91992,1.99854-4.12891-6.08545,52.34961-8.46973-27.66016,44.85938-4.19531-6.18213,6.42773-10.09521ZM608.04018,200.48584l8.96094-14.18701-16.67578,2.81689,7.71484,11.37012Z" fill="#1b1464"/>
      <path d="M641.9103,216.60449l-34.39258,18.00049-3.16504-6.04785,34.39258-18.00049-4.82324-9.21484,5.68457-2.9751,12.79688,24.45117-5.68359,2.9751-4.80957-9.18848Z" fill="#1b1464"/>
      <path d="M658.09878,236.38281l-41.5918,17.78418-2.68359-6.27637,41.5918-17.78467,2.68359,6.27686Z" fill="#1b1464"/>
      <path d="M641.56167,252.95459c6.11133-1.78564,12.01562-1.07959,17.71094,2.11963,5.69141,3.17969,9.45117,7.90039,11.28125,14.16211,1.80762,6.18652,1.14551,12.13818-1.98633,17.85547-3.12598,5.73633-7.79102,9.51074-13.99609,11.32422-6.24414,1.82422-12.19141,1.14062-17.84473-2.05029-5.67773-3.20459-9.44238-7.97461-11.29395-14.31104-1.6377-5.60596-1.16797-11.20654,1.40918-16.80176,2.85742-6.1665,7.76367-10.26562,14.71973-12.29834ZM643.40737,259.58789c-4.79883,1.40234-8.27344,4.16748-10.4248,8.2959-2.15723,4.10986-2.62207,8.26416-1.39355,12.46387,1.33008,4.55566,4.02832,7.93848,8.09277,10.14893,4.10156,2.19971,8.44043,2.63086,13.01465,1.29443,4.62988-1.35303,8.05859-4.03369,10.28516-8.04199,2.25195-3.99512,2.71484-8.26074,1.38867-12.79736-1.32031-4.51855-4.00977-7.87354-8.06836-10.06494-4.02148-2.20264-8.32031-2.63574-12.89453-1.29883Z" fill="#1b1464"/>
      <path d="M633.51674,309.4502l48.01953-5.29297-30.68945,36.5708,31.24609-3.44434.74805,6.78516-47.69922,5.25781,30.60156-36.56104-31.47852,3.46973-.74805-6.78516Z" fill="#1b1464"/>
    </g>
    <path d="M360.00014,720c-48.5957,0-95.74219-9.51953-140.13086-28.29492-42.87012-18.13184-81.36914-44.08789-114.42773-77.14648s-59.01465-71.55762-77.14648-114.42773C9.51967,455.74219.00014,408.5957.00014,360s9.51953-95.74219,28.29492-140.13135c18.13184-42.86963,44.08789-81.36865,77.14648-114.42725s71.55762-59.01465,114.42773-77.14697C264.25796,9.51953,311.40444,0,360.00014,0s95.74219,9.51953,140.13086,28.29443c42.87012,18.13232,81.36914,44.08838,114.42773,77.14697s59.01465,71.55762,77.14648,114.42725c18.77539,44.38916,28.29492,91.53613,28.29492,140.13135s-9.51953,95.74219-28.29492,140.13086c-18.13184,42.87012-44.08789,81.36914-77.14648,114.42773s-71.55762,59.01465-114.42773,77.14648c-44.38867,18.77539-91.53516,28.29492-140.13086,28.29492ZM360.00014,20c-90.81738,0-176.19922,35.36621-240.41602,99.5835C55.36635,183.80127,20.00014,269.18262,20.00014,360s35.36621,176.19922,99.58398,240.41602c64.2168,64.21777,149.59863,99.58398,240.41602,99.58398s176.19922-35.36621,240.41602-99.58398c64.21777-64.2168,99.58398-149.59863,99.58398-240.41602s-35.36621-176.19873-99.58398-240.4165c-64.2168-64.21729-149.59863-99.5835-240.41602-99.5835Z" fill="#1b1464"/>
  </g>
  <circle id="e" data-name="Background Fill" cx="360" cy="360" r="250" fill="#87bea6"/>
  <path d="M251.94057,360l66.51465,66.51465-16.9707,16.9707-83.48535-83.48535,83.45508-83.45508,16.9707,16.9707-66.48438,66.48438ZM418.51577,276.54492l-16.9707,16.9707,66.48438,66.48438-66.51465,66.51465,16.9707,16.9707,83.48535-83.48535-83.45508-83.45508ZM323.46132,450h24.84705l48.23059-180h-24.84692l-48.23071,180Z" fill="#007441"/>
  <path d="M543.8478,176.15234c-49.10742-49.10742-114.39941-76.15234-183.84766-76.15234s-134.74023,27.04492-183.84766,76.15234-76.15234,114.39893-76.15234,183.84766,27.04492,134.74023,76.15234,183.84766,114.39941,76.15234,183.84766,76.15234,134.74023-27.04492,183.84766-76.15234,76.15234-114.39941,76.15234-183.84766-27.04492-134.74023-76.15234-183.84766ZM529.7062,190.29443c11.35547,11.35565,21.43188,23.64941,30.15906,36.70557h-85.60681c-5.22278-16.9837-11.47729-32.88013-18.71436-47.35449-11.04211-22.08337-23.81616-39.78357-37.78259-52.6795,42.01819,10.33447,80.56287,31.94659,111.9447,63.32843ZM368.00014,120.14618c2.99487.09747,5.9812.24316,8.95605.44946,23.91895,7.36456,46.28882,30.23053,64.27637,66.20514,6.18237,12.36456,11.61255,25.84296,16.26074,40.19922h-89.49316v-106.85382ZM343.04409,120.59564c2.97485-.2063,5.96118-.35199,8.95605-.44946v106.85382h-89.49365c4.64819-14.35632,10.07812-27.83472,16.26025-40.19922,17.98755-35.97461,40.35815-58.84058,64.27734-66.20514ZM190.29409,190.29443c31.38171-31.38171,69.92615-52.99377,111.94421-63.32831-13.96643,12.89594-26.74048,30.59613-37.7821,52.67938-7.2373,14.47443-13.49207,30.37079-18.71484,47.35449h-85.60632c8.72717-13.05615,18.80359-25.34991,30.15906-36.70557ZM190.29409,529.70605c-11.35547-11.35577-21.43201-23.64972-30.15918-36.70605h85.60645c5.22278,16.98376,11.47754,32.88019,18.71484,47.35449,11.04163,22.08325,23.81555,39.78345,37.78198,52.67932-42.01794-10.33459-80.56238-31.94672-111.94409-63.32776ZM352.00014,599.85382c-2.995-.09747-5.98145-.24323-8.9563-.44952-23.91919-7.3645-46.28967-30.23016-64.2771-66.20508-6.18213-12.36456-11.61194-25.84296-16.26001-40.19922h89.49341v106.85382ZM376.95644,599.40436c-2.97485.2063-5.96143.35199-8.9563.44946v-106.85382h89.49316c-4.64819,14.35626-10.07837,27.83466-16.26074,40.19922-17.98743,35.97491-40.3573,58.84064-64.27612,66.20514ZM529.7062,529.70605c-31.38184,31.38116-69.92651,52.99323-111.94458,63.32782,13.96631-12.89587,26.74048-30.59607,37.78247-52.67938,7.23694-14.47449,13.49146-30.37085,18.71436-47.35449h85.60693c-8.72717,13.05634-18.80371,25.35028-30.15918,36.70605ZM569.65993,477h-90.87268c7.04553-27.14484,11.57666-56.65295,13.35327-87.37085l-17.38818,17.38812c-2.3645,24.59106-6.57031,48.14807-12.50293,69.98273h-94.24927v-46.39624l-6.16797,23.01929c-1.3114,4.89276-5.12085,8.58643-9.83203,9.87482v13.50214h-94.24951c-5.92969-21.82471-10.13428-45.37024-12.49951-69.94922l-17.3894-17.38934c1.77783,30.7063,6.30786,60.20331,13.35083,87.33856h-90.87219c-18.52747-33.08466-28.93298-70.24689-30.19397-109h90.07886c-.82202-2.55164-1.25537-5.24182-1.25537-8s.43311-5.4483,1.25513-8h-90.07861c1.26099-38.75317,11.6665-75.91541,30.19409-109h90.87207c-7.04285,27.13507-11.57288,56.6319-13.35083,87.33813l17.3894-17.38916c2.36523-24.57892,6.5697-48.12439,12.49951-69.94897h94.24951v46.39905l6.16895-23.02258c1.31128-4.89203,5.12024-8.58539,9.83105-9.87402v-13.50244h94.24927c5.93262,21.83466,10.13843,45.39166,12.50293,69.98273l17.38818,17.38812c-1.77661-30.71783-6.30774-60.22607-13.35327-87.37085h90.87256c18.52759,33.08459,28.93311,70.24683,30.19409,109h-90.10889c.8219,2.5517,1.25513,5.24188,1.25513,8s-.43335,5.44836-1.25537,8h90.10913c-1.26099,38.75311-11.6665,75.91534-30.19397,109Z" fill="#1b1464"/>
</svg>